<mxfile host="app.diagrams.net" modified="2024-06-12T07:13:02.682Z" agent="Mozilla/5.0 (Windows NT 10.0; Win64; x64) AppleWebKit/537.36 (KHTML, like Gecko) Chrome/123.0.0.0 Safari/537.36 OPR/109.0.0.0" etag="DIxy_tHZam1VABHjhVyx" version="24.5.3" type="device">
  <diagram name="PÃ¡gina-1" id="EFJ6Qx1ALHJd5FkN08e3">
    <mxGraphModel dx="1899" dy="618" grid="1" gridSize="10" guides="1" tooltips="1" connect="1" arrows="1" fold="1" page="1" pageScale="1" pageWidth="827" pageHeight="1169" math="0" shadow="0">
      <root>
        <mxCell id="0" />
        <mxCell id="1" parent="0" />
        <mxCell id="-anQgHV0VJh3gBKkXMGw-2" value="&lt;p style=&quot;margin:0px;margin-top:4px;text-align:center;&quot;&gt;&lt;b&gt;Computadora&lt;/b&gt;&lt;/p&gt;&lt;hr size=&quot;1&quot; style=&quot;border-style:solid;&quot;&gt;&lt;p style=&quot;margin:0px;margin-left:4px;&quot;&gt;- Ram : int&lt;br&gt;- Nucleos : int&lt;/p&gt;&lt;div&gt;&amp;nbsp;- GHz : float&lt;br&gt;&amp;nbsp;&lt;span style=&quot;background-color: initial;&quot;&gt;- SSD : bool&lt;/span&gt;&lt;/div&gt;&lt;hr size=&quot;1&quot; style=&quot;border-style:solid;&quot;&gt;&lt;p style=&quot;margin:0px;margin-left:4px;&quot;&gt;+&amp;nbsp;&lt;span style=&quot;text-align: center;&quot;&gt;ElJuegoAbre&lt;/span&gt;()&lt;br&gt;+ GraficosAlMaximo()&lt;br&gt;&lt;/p&gt;" style="verticalAlign=top;align=left;overflow=fill;html=1;whiteSpace=wrap;" vertex="1" parent="1">
          <mxGeometry x="-740" y="190" width="170" height="140" as="geometry" />
        </mxCell>
        <mxCell id="-anQgHV0VJh3gBKkXMGw-18" style="edgeStyle=orthogonalEdgeStyle;rounded=0;orthogonalLoop=1;jettySize=auto;html=1;exitX=0.5;exitY=1;exitDx=0;exitDy=0;" edge="1" parent="1" source="-anQgHV0VJh3gBKkXMGw-19" target="-anQgHV0VJh3gBKkXMGw-21">
          <mxGeometry relative="1" as="geometry">
            <mxPoint x="-419.7894736842104" y="410" as="targetPoint" />
          </mxGeometry>
        </mxCell>
        <mxCell id="-anQgHV0VJh3gBKkXMGw-19" value="ElJuegoAbre()" style="ellipse;whiteSpace=wrap;html=1;" vertex="1" parent="1">
          <mxGeometry x="-480" y="290" width="120" height="80" as="geometry" />
        </mxCell>
        <mxCell id="-anQgHV0VJh3gBKkXMGw-20" style="edgeStyle=orthogonalEdgeStyle;rounded=0;orthogonalLoop=1;jettySize=auto;html=1;" edge="1" parent="1" source="-anQgHV0VJh3gBKkXMGw-21" target="-anQgHV0VJh3gBKkXMGw-23">
          <mxGeometry relative="1" as="geometry">
            <mxPoint x="-342.99947368421044" y="480" as="targetPoint" />
          </mxGeometry>
        </mxCell>
        <mxCell id="-anQgHV0VJh3gBKkXMGw-21" value="Ram=16&lt;div&gt;Nucleos=8&lt;br&gt;GHz=3.8&lt;/div&gt;&lt;div&gt;SSD=true&lt;/div&gt;" style="rounded=0;whiteSpace=wrap;html=1;" vertex="1" parent="1">
          <mxGeometry x="-506" y="400" width="172" height="60" as="geometry" />
        </mxCell>
        <mxCell id="-anQgHV0VJh3gBKkXMGw-22" value="" style="edgeStyle=orthogonalEdgeStyle;rounded=0;orthogonalLoop=1;jettySize=auto;html=1;" edge="1" parent="1" source="-anQgHV0VJh3gBKkXMGw-23" target="-anQgHV0VJh3gBKkXMGw-28">
          <mxGeometry relative="1" as="geometry" />
        </mxCell>
        <mxCell id="-anQgHV0VJh3gBKkXMGw-23" value="getRam&lt;div&gt;getSSD&lt;/div&gt;" style="shape=parallelogram;perimeter=parallelogramPerimeter;whiteSpace=wrap;html=1;fixedSize=1;" vertex="1" parent="1">
          <mxGeometry x="-495" y="500" width="150" height="60" as="geometry" />
        </mxCell>
        <mxCell id="-anQgHV0VJh3gBKkXMGw-24" style="edgeStyle=orthogonalEdgeStyle;rounded=0;orthogonalLoop=1;jettySize=auto;html=1;" edge="1" parent="1" source="-anQgHV0VJh3gBKkXMGw-28" target="-anQgHV0VJh3gBKkXMGw-33">
          <mxGeometry relative="1" as="geometry">
            <mxPoint x="-610" y="821.9493343955592" as="targetPoint" />
            <Array as="points">
              <mxPoint x="-630" y="660" />
            </Array>
          </mxGeometry>
        </mxCell>
        <mxCell id="-anQgHV0VJh3gBKkXMGw-25" value="false" style="edgeLabel;html=1;align=center;verticalAlign=middle;resizable=0;points=[];" vertex="1" connectable="0" parent="-anQgHV0VJh3gBKkXMGw-24">
          <mxGeometry x="0.2844" y="1" relative="1" as="geometry">
            <mxPoint x="39" y="-108" as="offset" />
          </mxGeometry>
        </mxCell>
        <mxCell id="-anQgHV0VJh3gBKkXMGw-26" style="edgeStyle=orthogonalEdgeStyle;rounded=0;orthogonalLoop=1;jettySize=auto;html=1;exitX=1;exitY=0.5;exitDx=0;exitDy=0;entryX=0.48;entryY=-0.006;entryDx=0;entryDy=0;entryPerimeter=0;" edge="1" parent="1" source="-anQgHV0VJh3gBKkXMGw-28" target="-anQgHV0VJh3gBKkXMGw-30">
          <mxGeometry relative="1" as="geometry">
            <mxPoint x="-210" y="880" as="targetPoint" />
            <Array as="points">
              <mxPoint x="-210" y="660" />
              <mxPoint x="-210" y="874" />
              <mxPoint x="-210" y="874" />
            </Array>
          </mxGeometry>
        </mxCell>
        <mxCell id="-anQgHV0VJh3gBKkXMGw-27" value="true" style="edgeLabel;html=1;align=center;verticalAlign=middle;resizable=0;points=[];" vertex="1" connectable="0" parent="-anQgHV0VJh3gBKkXMGw-26">
          <mxGeometry x="0.3089" y="-1" relative="1" as="geometry">
            <mxPoint x="-39" y="-118" as="offset" />
          </mxGeometry>
        </mxCell>
        <mxCell id="-anQgHV0VJh3gBKkXMGw-28" value="&amp;nbsp;while (Ram &amp;gt;= 8 &amp;amp;&amp;amp; SSD = true);" style="rhombus;whiteSpace=wrap;html=1;" vertex="1" parent="1">
          <mxGeometry x="-555" y="610" width="270" height="100" as="geometry" />
        </mxCell>
        <mxCell id="-anQgHV0VJh3gBKkXMGw-36" style="edgeStyle=orthogonalEdgeStyle;rounded=0;orthogonalLoop=1;jettySize=auto;html=1;" edge="1" parent="1" source="-anQgHV0VJh3gBKkXMGw-30" target="-anQgHV0VJh3gBKkXMGw-35">
          <mxGeometry relative="1" as="geometry" />
        </mxCell>
        <mxCell id="-anQgHV0VJh3gBKkXMGw-30" value="&quot;El juego abre&quot;" style="shape=document;whiteSpace=wrap;html=1;boundedLbl=1;" vertex="1" parent="1">
          <mxGeometry x="-268" y="870" width="120" height="70" as="geometry" />
        </mxCell>
        <mxCell id="-anQgHV0VJh3gBKkXMGw-33" value="FIN" style="ellipse;whiteSpace=wrap;html=1;" vertex="1" parent="1">
          <mxGeometry x="-690" y="870" width="120" height="80" as="geometry" />
        </mxCell>
        <mxCell id="-anQgHV0VJh3gBKkXMGw-35" value="FIN" style="ellipse;whiteSpace=wrap;html=1;" vertex="1" parent="1">
          <mxGeometry x="-268" y="1020" width="120" height="80" as="geometry" />
        </mxCell>
        <mxCell id="-anQgHV0VJh3gBKkXMGw-37" value="&lt;p style=&quot;margin:0px;margin-top:4px;text-align:center;&quot;&gt;&lt;b&gt;Alumno&lt;/b&gt;&lt;/p&gt;&lt;hr size=&quot;1&quot; style=&quot;border-style:solid;&quot;&gt;&lt;p style=&quot;margin:0px;margin-left:4px;&quot;&gt;- LautaroVargas : string&lt;/p&gt;" style="verticalAlign=top;align=left;overflow=fill;html=1;whiteSpace=wrap;" vertex="1" parent="1">
          <mxGeometry x="-293" y="190" width="170" height="50" as="geometry" />
        </mxCell>
      </root>
    </mxGraphModel>
  </diagram>
</mxfile>
